<?xml version="1.0" encoding="UTF-8"?>
<svg width="88px" height="63px" viewBox="0 0 88 63" version="1.1" xmlns="http://www.w3.org/2000/svg" xmlns:xlink="http://www.w3.org/1999/xlink">
    <title>Artboard</title>
    <g id="Artboard" stroke="none" stroke-width="1" fill="none" fill-rule="evenodd">
        <g id="noun_menu_109994" fill="#FFFFFF" fill-rule="nonzero">
            <path d="M85,57 L3,57 C1.343,57 0,58.343 0,60 C0,61.657 1.343,63 3,63 L85,63 C86.657,63 88,61.657 88,60 C88,58.343 86.657,57 85,57 Z M85,29 L3,29 C1.343,29 0,30.343 0,32 C0,33.657 1.343,35 3,35 L85,35 C86.657,35 88,33.657 88,32 C88,30.343 86.657,29 85,29 Z M3,6 L85,6 C86.657,6 88,4.657 88,3 C88,1.343 86.657,0 85,0 L3,0 C1.343,0 0,1.343 0,3 C0,4.657 1.343,6 3,6 Z" id="Shape"></path>
        </g>
    </g>
</svg>