<?xml version="1.0" encoding="UTF-8"?>
<svg width="28px" height="22px" viewBox="0 0 28 22" version="1.1" xmlns="http://www.w3.org/2000/svg" xmlns:xlink="http://www.w3.org/1999/xlink">
    <title>Group 3</title>
    <g id="Page-1" stroke="none" stroke-width="1" fill="none" fill-rule="evenodd">
        <g id="Artboard" transform="translate(-28.000000, -157.000000)">
            <g id="Group-3" transform="translate(29.000000, 158.000000)">
                <g id="Group-2" transform="translate(9.000000, 0.000000)">
                    <path d="M1.52433116,8.67196752 C1.52433116,6.32601049 3.25946103,1.78937976 8.02376577,1.67389706 C10.1307798,1.62282483 11.5947996,2.59243194 12.6218025,3.771361 C13.9170217,5.25818411 14.493552,7.15903598 14.5243312,8.67196752" id="Path" stroke="#EF433E" stroke-width="3" transform="translate(8.024331, 5.171968) rotate(-360.000000) translate(-8.024331, -5.171968) "></path>
                    <polygon id="Path-6" stroke="#000000" stroke-width="0.2" fill="#016EDF" points="0.232417107 8.73525587 3.00903816 8.67196752 3.82112119 9.40644068 1.97817817 9.77105939"></polygon>
                    <path d="M3.0468756,8.58015345 L3.94795696,9.27089162 C4.14043913,6.69327425 4.96789892,5.09751191 6.43033633,4.48360459 C7.89277374,3.86969727 9.59115203,4.00864081 11.5254712,4.90043521 C10.1631555,3.32493638 8.49623868,2.82847243 6.52472085,3.41104335 C4.55320302,3.99361427 3.39392127,5.71665097 3.0468756,8.58015345 Z" id="Path-7" stroke="#000000" stroke-width="0.2" fill="#FDEC0F"></path>
                    <polygon id="Path-8" stroke="#000000" stroke-width="0.2" fill="#016EDF" points="13.3550673 8.84949244 15.1220343 9.77105939 16.9133033 9.50398776 15.9871338 8.67196752"></polygon>
                    <path d="M7.2861734,0.150184682 C10.2278344,-0.325234039 12.5779191,0.32807234 14.3364273,2.11010382 C16.0949356,3.8921353 16.9965113,6.3170071 17.0411543,9.38471924 L15.9871338,8.67196752 C15.7171141,5.60539792 14.8353808,3.41811002 13.3419339,2.11010382 C11.848487,0.802097617 9.82990018,0.148791237 7.2861734,0.150184682 Z" id="Path-9" stroke="#000000" stroke-width="0.2" fill="#FDEC0F"></path>
                    <path d="M-6.21724894e-15,8.54530577 L3.0468756,8.54530577 C3.58266653,4.96519914 5.24181838,3.17514582 8.02433116,3.17514582 C10.8068439,3.17514582 12.4918803,5.00741972 13.0794401,8.67196752 L15.9871338,8.67196752 C15.787495,7.14237839 15.5723483,6.05849246 15.3416939,5.42030973 C14.1095236,2.01109843 11.5674787,0.246406737 7.93215073,0.150184682 C5.89212891,0.0961881535 3.92269969,1.09688102 2.84129816,2.16660966 C1.36340476,3.62855034 0.416305372,5.75478238 -6.21724894e-15,8.54530577 Z" id="Path-10" stroke="#000000" stroke-width="0.2"></path>
                </g>
                <g id="Group" transform="translate(0.000000, 10.000000)">
                    <polygon id="Path-3" stroke="#000000" stroke-width="0.2" fill="#FDEC0F" points="0.127862453 1.60169065 1.82062581 0 3.72450852 0.0229296684 3.0264846 1.78753543"></polygon>
                    <path d="M3.0264846,1.78753543 L3.80737597,0.263395493 C4.10830574,2.93395218 4.87186659,4.60866549 6.09805853,5.28753543 C7.32425048,5.96640537 9.03932018,6.13307203 11.2432676,5.78753543 C10.264862,6.7713942 9.35623882,7.2676405 8.51739795,7.27627431 C5.08540422,7.3115983 3.25509977,5.48201867 3.0264846,1.78753543 Z" id="Path-3" stroke="#000000" stroke-width="0.2" fill="#016EDF"></path>
                    <polygon id="Path-4" stroke="#000000" stroke-width="0.2" fill="#FDEC0F" points="13.1531709 1.62801011 14.504346 0 17.0503749 0 16.0762052 1.78753543"></polygon>
                    <path d="M16.0003897,1.82691377 L17.0890696,0.276527706 C16.9351825,2.48308742 16.5161745,4.39473413 15.8320455,6.01146782 C15.1479166,7.62820151 13.589596,8.83948955 11.1570836,9.64533193 C13.0179,8.48780746 14.2744117,7.23862352 14.9266187,5.89778013 C15.5788257,4.55693673 15.9367494,3.19998128 16.0003897,1.82691377 Z" id="Path-5" stroke="#000000" stroke-width="0.2" fill="#016EDF"></path>
                    <path d="M1.50434597,8.78753543 C1.50434597,6.4415784 3.23947584,1.90494768 8.00378058,1.78946497 C10.1107946,1.73839274 11.5748144,2.70799985 12.6018173,3.88692891 C13.8970365,5.37375202 14.4735668,7.27460389 14.504346,8.78753543" id="Path" stroke="#EF433E" stroke-width="3" transform="translate(8.004346, 5.287535) rotate(-180.000000) translate(-8.004346, -5.287535) "></path>
                    <path d="M0,1.78753543 L3.02651696,1.78753543 C3.26804291,3.52545256 3.62848147,4.69211923 4.10783263,5.28753543 C4.88808801,6.25671361 6.19381187,7.22507193 7.6847602,7.29802398 C9.17570853,7.37097603 9.79536629,7.08308829 11.1147737,6.02943452 C11.9943787,5.32699868 12.6379079,3.91303231 13.0453613,1.78753543 L16.0003897,1.78753543 C15.8747437,3.69569783 15.3760625,5.29977557 14.504346,6.59976862 C13.1967712,8.54975821 12.5873083,8.94287507 10.9536892,9.67365181 C9.32007017,10.4044285 7.59077015,10.6391895 5.57061061,9.99657573 C4.22383759,9.56816652 2.92145962,8.51253529 1.66347668,6.82968203 C1.0556492,6.03528929 0.639920855,5.22353232 0.416291631,4.39441113 C0.192662407,3.56528994 0.0538985302,2.69633137 0,1.78753543 Z" id="Path-2" stroke="#000000" stroke-width="0.2"></path>
                </g>
            </g>
        </g>
    </g>
</svg>